<?xml version="1.0" encoding="UTF-8"?>
<!DOCTYPE svg PUBLIC "-//W3C//DTD SVG 1.1//EN" "http://www.w3.org/Graphics/SVG/1.1/DTD/svg11.dtd">
<svg xmlns="http://www.w3.org/2000/svg" version="1.1" width="110px" height="110px" style="shape-rendering:geometricPrecision; text-rendering:geometricPrecision; image-rendering:optimizeQuality; fill-rule:evenodd; clip-rule:evenodd" xmlns:xlink="http://www.w3.org/1999/xlink">
<g><path style="opacity:1" fill="#252425" d="M 44.5,53.5 C 42.7368,56.0196 40.7368,58.3529 38.5,60.5C 36.2375,59.1041 34.0709,57.4375 32,55.5C 29.9538,55.4513 27.7871,55.7846 25.5,56.5C 26.7111,57.7202 26.7111,58.8869 25.5,60C 23.0499,61.0603 20.7166,61.227 18.5,60.5C 19.967,56.3936 21.3004,52.2269 22.5,48C 21.7511,42.5693 18.7511,40.236 13.5,41C 9.69301,44.0839 8.52635,47.9172 10,52.5C 0.597654,45.8697 -1.06901,37.5364 5,27.5C 11.8776,20.6229 20.0442,18.6229 29.5,21.5C 29.62,20.4138 30.2867,19.7472 31.5,19.5C 41.9315,22.424 47.2649,29.2574 47.5,40C 47.0484,44.6381 46.0484,49.1381 44.5,53.5 Z M 29.5,21.5 C 31.0269,21.427 32.0269,22.0937 32.5,23.5C 30.9731,23.573 29.9731,22.9063 29.5,21.5 Z"/></g>
<g><path style="opacity:0.999" fill="#252525" d="M 82.5,61.5 C 83.9639,62.045 85.6306,62.045 87.5,61.5C 87.5,62.1667 87.8333,62.5 88.5,62.5C 88.5,62.8333 88.5,63.1667 88.5,63.5C 88.5,64.5 88.5,65.5 88.5,66.5C 86.1667,65.1667 83.8333,65.1667 81.5,66.5C 78.9716,67.0114 76.4716,67.6781 74,68.5C 71.1252,67.6473 68.2919,66.6473 65.5,65.5C 63.3411,67.9947 60.6745,69.6614 57.5,70.5C 59.4039,71.7659 60.7372,73.4325 61.5,75.5C 60.1751,74.0474 59.3418,74.3808 59,76.5C 57.2028,73.9041 55.8695,74.2374 55,77.5C 53.2602,76.2842 52.2602,74.6175 52,72.5C 51.5034,74.8098 51.3367,77.1432 51.5,79.5C 50.1779,79.67 49.0113,79.3366 48,78.5C 47.6667,75.5 47.3333,72.5 47,69.5C 45.3335,70.3402 45.1669,69.8402 46.5,68C 44.2433,68.4371 41.91,68.9371 39.5,69.5C 39.5,72.8333 39.5,76.1667 39.5,79.5C 40.675,79.281 41.675,79.6143 42.5,80.5C 41.6258,82.7466 41.2924,85.0799 41.5,87.5C 42.552,87.3505 43.552,87.5172 44.5,88C 43.354,88.6449 42.354,89.4783 41.5,90.5C 40.7025,90.0431 40.3691,89.3764 40.5,88.5C 38.8785,85.4328 36.8785,82.5995 34.5,80C 35.8228,79.1841 36.4894,78.0174 36.5,76.5C 37.2679,77.2625 37.7679,78.2625 38,79.5C 37.9899,70.2069 40.1566,61.5403 44.5,53.5C 48.873,48.646 54.2064,45.3126 60.5,43.5C 61.4831,39.3684 63.3165,35.7017 66,32.5C 67.0759,27.9278 66.2425,23.7611 63.5,20C 65.0762,19.5604 66.4096,18.727 67.5,17.5C 72.2285,20.6195 75.2285,24.9528 76.5,30.5C 83.2231,33.0628 87.5565,37.8961 89.5,45C 87.0442,47.1911 84.3775,49.1911 81.5,51C 70.8214,48.8901 69.4881,51.8901 77.5,60C 79.0249,61.0086 80.6916,61.5086 82.5,61.5 Z M 79.5,39.5 C 78.5,39.5 77.5,39.5 76.5,39.5C 76.8073,36.038 77.8073,36.038 79.5,39.5 Z"/></g>
<g><path style="opacity:0.998" fill="#252526" d="M 38.5,60.5 C 36.7359,65.6439 36.0692,70.9772 36.5,76.5C 36.4894,78.0174 35.8228,79.1841 34.5,80C 36.8785,82.5995 38.8785,85.4328 40.5,88.5C 38.901,88.2322 37.5676,88.5655 36.5,89.5C 35.3991,90.5983 34.0657,90.765 32.5,90C 33.2583,88.6361 32.7583,87.4695 31,86.5C 30.3828,87.4491 30.5494,88.2825 31.5,89C 30.9056,89.4643 30.2389,89.631 29.5,89.5C 24.3979,87.3998 21.0645,83.7331 19.5,78.5C 20.355,77.4693 21.0217,76.3026 21.5,75C 20.2504,72.3852 18.9171,69.8852 17.5,67.5C 17.1984,64.9407 17.5318,62.6074 18.5,60.5C 20.7166,61.227 23.0499,61.0603 25.5,60C 26.7111,58.8869 26.7111,57.7202 25.5,56.5C 27.7871,55.7846 29.9538,55.4513 32,55.5C 34.0709,57.4375 36.2375,59.1041 38.5,60.5 Z"/></g>
<g><path style="opacity:1" fill="#232324" d="M 81.5,66.5 C 83.8333,65.1667 86.1667,65.1667 88.5,66.5C 88.5,65.5 88.5,64.5 88.5,63.5C 91.1667,63.1667 91.1667,62.8333 88.5,62.5C 87.8333,62.5 87.5,62.1667 87.5,61.5C 85.6306,62.045 83.9639,62.045 82.5,61.5C 82.7385,58.8517 84.0718,57.0183 86.5,56C 86.3288,52.3022 87.6622,48.9688 90.5,46C 96.2906,45.8571 101.957,46.6905 107.5,48.5C 107.657,49.8734 107.49,51.2068 107,52.5C 101.436,60.9566 96.6023,69.9566 92.5,79.5C 92,79.8333 91.5,80.1667 91,80.5C 85.7309,78.2874 80.2309,76.9541 74.5,76.5C 75.8314,73.1662 77.6647,70.1662 80,67.5C 81.3876,68.5536 82.8876,68.7203 84.5,68C 83.2625,67.7679 82.2625,67.2679 81.5,66.5 Z"/></g>
<g><path style="opacity:0.105" fill="#09090b" d="M 17.5,67.5 C 18.9171,69.8852 20.2504,72.3852 21.5,75C 21.0217,76.3026 20.355,77.4693 19.5,78.5C 18.3349,77.5039 17.6682,76.1705 17.5,74.5C 18.0725,72.3127 18.0725,69.9794 17.5,67.5 Z"/></g>
<g><path style="opacity:1" fill="#242426" d="M 61.5,75.5 C 62.9402,76.9461 63.6068,78.7794 63.5,81C 63.1297,82.8958 62.963,84.7292 63,86.5C 66.1409,82.4945 66.6409,78.3279 64.5,74C 66.5421,70.12 68.3754,69.9533 70,73.5C 72.5612,79.8189 71.0612,84.9856 65.5,89C 66.1667,89.3333 66.8333,89.6667 67.5,90C 81.6594,90.0041 95.6594,91.1707 109.5,93.5C 109.5,95.1667 109.5,96.8333 109.5,98.5C 99.7412,97.1359 89.9078,96.4692 80,96.5C 66.172,97.1024 52.3386,97.4357 38.5,97.5C 36.1026,96.8747 34.1026,96.208 32.5,95.5C 34.0577,93.4464 36.0577,91.9464 38.5,91C 37.9558,90.2828 37.2891,89.7828 36.5,89.5C 37.5676,88.5655 38.901,88.2322 40.5,88.5C 40.3691,89.3764 40.7025,90.0431 41.5,90.5C 42.354,89.4783 43.354,88.6449 44.5,88C 43.552,87.5172 42.552,87.3505 41.5,87.5C 41.2924,85.0799 41.6258,82.7466 42.5,80.5C 41.675,79.6143 40.675,79.281 39.5,79.5C 39.5,76.1667 39.5,72.8333 39.5,69.5C 41.91,68.9371 44.2433,68.4371 46.5,68C 45.1669,69.8402 45.3335,70.3402 47,69.5C 47.3333,72.5 47.6667,75.5 48,78.5C 49.0113,79.3366 50.1779,79.67 51.5,79.5C 51.3367,77.1432 51.5034,74.8098 52,72.5C 52.2602,74.6175 53.2602,76.2842 55,77.5C 55.8695,74.2374 57.2028,73.9041 59,76.5C 59.3418,74.3808 60.1751,74.0474 61.5,75.5 Z"/></g>
<g><path style="opacity:1" fill="#19191a" d="M 36.5,89.5 C 37.2891,89.7828 37.9558,90.2828 38.5,91C 36.0577,91.9464 34.0577,93.4464 32.5,95.5C 34.1026,96.208 36.1026,96.8747 38.5,97.5C 33.6946,98.4872 28.6946,98.8205 23.5,98.5C 25.9542,97.3794 28.6209,96.546 31.5,96C 26.8857,93.5977 22.719,94.0977 19,97.5C 17.4667,97.0563 15.9667,96.723 14.5,96.5C 11.557,97.2435 8.55701,97.7435 5.5,98C 6.05596,98.3826 6.38929,98.8826 6.5,99.5C 4.16667,99.5 1.83333,99.5 -0.5,99.5C -0.5,98.8333 -0.5,98.1667 -0.5,97.5C 10.8116,95.5592 22.1449,93.7259 33.5,92C 31.6803,91.7996 30.347,90.9663 29.5,89.5C 30.2389,89.631 30.9056,89.4643 31.5,89C 30.5494,88.2825 30.3828,87.4491 31,86.5C 32.7583,87.4695 33.2583,88.6361 32.5,90C 34.0657,90.765 35.3991,90.5983 36.5,89.5 Z"/></g>
<g><path style="opacity:1" fill="#232325" d="M 23.5,98.5 C 17.8791,99.3537 12.2124,99.687 6.5,99.5C 6.38929,98.8826 6.05596,98.3826 5.5,98C 8.55701,97.7435 11.557,97.2435 14.5,96.5C 15.9667,96.723 17.4667,97.0563 19,97.5C 22.719,94.0977 26.8857,93.5977 31.5,96C 28.6209,96.546 25.9542,97.3794 23.5,98.5 Z"/></g>
<g><path style="opacity:0.424" fill="#18171e" d="M -0.5,107.5 C 0.709515,107.932 1.70951,108.599 2.5,109.5C 1.5,109.5 0.5,109.5 -0.5,109.5C -0.5,108.833 -0.5,108.167 -0.5,107.5 Z"/></g>
<g><path style="opacity:0.345" fill="#4a4b4a" d="M 109.5,108.5 C 109.5,108.833 109.5,109.167 109.5,109.5C 108.83,109.019 108.83,108.685 109.5,108.5 Z"/></g>
</svg>
